<?xml version="1.0" standalone="no"?>
<!DOCTYPE svg PUBLIC "-//W3C//DTD SVG 20010904//EN"
 "http://www.w3.org/TR/2001/REC-SVG-20010904/DTD/svg10.dtd">
<svg version="1.0" xmlns="http://www.w3.org/2000/svg"
 width="700.000000pt" height="700.000000pt" viewBox="0 0 700.000000 700.000000"
 preserveAspectRatio="xMidYMid meet">
<metadata>
Created by potrace 1.14, written by Peter Selinger 2001-2017
</metadata>
<g transform="translate(0.000000,700.000000) scale(0.100000,-0.100000)"
fill="#000000" stroke="none">
<path d="M3280 6994 c-19 -2 -84 -9 -145 -14 -636 -62 -1266 -316 -1795 -726
-148 -114 -480 -446 -594 -594 -411 -530 -654 -1132 -728 -1795 -17 -155 -17
-575 0 -730 75 -673 332 -1300 748 -1820 114 -143 339 -372 484 -494 537 -451
1163 -717 1885 -803 142 -17 586 -17 730 0 682 79 1268 318 1802 734 138 107
389 351 512 498 451 538 717 1161 803 1885 19 165 16 596 -6 770 -33 265 -87
501 -166 730 -301 869 -933 1589 -1759 2000 -366 183 -747 295 -1176 345 -92
11 -532 21 -595 14z m56 -1658 l34 -34 0 -801 0 -801 -27 -30 c-17 -19 -44
-35 -68 -40 -53 -12 -1497 -12 -1550 0 -24 5 -51 21 -67 40 l-28 30 0 801 0
801 34 34 34 34 802 0 802 0 34 -34z m2000 0 l34 -34 0 -801 0 -801 -27 -30
c-17 -19 -44 -35 -68 -40 -53 -12 -1497 -12 -1550 0 -24 5 -51 21 -67 40 -28
30 -28 31 -28 180 l0 150 120 0 119 0 3 -62 3 -63 625 0 625 0 3 623 2 622
-630 0 -630 0 0 -435 0 -435 -120 0 -120 0 0 526 0 526 34 34 34 34 802 0 802
0 34 -34z m-500 -500 l34 -34 0 -301 0 -301 -27 -30 c-17 -19 -44 -35 -68 -40
-52 -12 -498 -12 -550 0 -24 5 -51 21 -67 40 l-28 30 0 301 0 301 34 34 34 34
302 0 302 0 34 -34z m-1500 -1500 l34 -34 0 -801 0 -801 -27 -30 c-17 -19 -44
-35 -68 -40 -53 -12 -1497 -12 -1550 0 -24 5 -51 21 -67 40 l-28 30 0 801 0
801 34 34 34 34 802 0 802 0 34 -34z m914 -91 l0 -125 -190 0 -190 0 0 -185 0
-185 -120 0 -120 0 0 276 0 276 34 34 34 34 276 0 276 0 0 -125z m1086 91 l34
-34 0 -216 0 -216 -120 0 -120 0 0 125 0 125 -315 0 -315 0 0 125 0 125 401 0
401 0 34 -34z m-586 -461 l0 -125 -310 0 -310 0 0 125 0 125 310 0 310 0 0
-125z m556 -141 c65 -31 64 -22 64 -553 l0 -481 -27 -30 c-17 -19 -44 -35 -68
-40 -22 -5 -149 -10 -282 -10 l-243 0 0 125 0 125 188 2 187 3 3 313 2 312
-125 0 -125 0 0 125 0 125 196 0 c161 0 202 -3 230 -16z m-720 -148 l34 -34 0
-426 0 -426 -27 -30 c-17 -19 -44 -35 -68 -40 -22 -5 -202 -10 -400 -10 -198
0 -378 5 -400 10 -24 5 -51 21 -67 40 l-28 30 0 426 0 426 34 34 34 34 427 0
427 0 34 -34z"/>
<path d="M1872 4498 l3 -623 625 0 625 0 3 623 2 622 -630 0 -630 0 2 -622z
m964 338 l34 -34 0 -301 0 -301 -27 -30 c-17 -19 -44 -35 -68 -40 -52 -12
-498 -12 -550 0 -24 5 -51 21 -67 40 l-28 30 0 301 0 301 34 34 34 34 302 0
302 0 34 -34z"/>
<path d="M2374 4617 c-2 -7 -3 -65 -2 -128 l3 -114 125 0 125 0 0 125 0 125
-123 3 c-95 2 -124 0 -128 -11z"/>
<path d="M4374 4617 c-2 -7 -3 -65 -2 -128 l3 -114 125 0 125 0 0 125 0 125
-123 3 c-95 2 -124 0 -128 -11z"/>
<path d="M1872 2498 l3 -623 625 0 625 0 3 623 2 622 -630 0 -630 0 2 -622z
m964 338 l34 -34 0 -301 0 -301 -27 -30 c-17 -19 -44 -35 -68 -40 -52 -12
-498 -12 -550 0 -24 5 -51 21 -67 40 l-28 30 0 301 0 301 34 34 34 34 302 0
302 0 34 -34z"/>
<path d="M2374 2617 c-2 -7 -3 -65 -2 -128 l3 -114 125 0 125 0 0 125 0 125
-123 3 c-95 2 -124 0 -128 -11z"/>
<path d="M3875 2367 c-3 -7 -4 -120 -3 -252 l3 -240 250 0 250 0 0 250 0 250
-248 3 c-194 2 -249 0 -252 -11z"/>
</g>
</svg>
