<?xml version="1.0"?>
<svg xmlns="http://www.w3.org/2000/svg" xmlns:xlink="http://www.w3.org/1999/xlink" xmlns:svgjs="http://svgjs.com/svgjs" version="1.1" width="512" height="512" x="0" y="0" viewBox="0 0 448 448" style="enable-background:new 0 0 512 512" xml:space="preserve" class=""><circle r="224" cx="224" cy="224" fill="#ffffff" shape="circle" transform="matrix(1,0,0,1,0,0)"/><g transform="matrix(1,0,0,1,1.9895196601282805e-13,1.9895196601282805e-13)"><path xmlns="http://www.w3.org/2000/svg" d="m248 296h32v32h-32zm0 0" fill="#3298e7" data-original="#000000" style="" class=""/><path xmlns="http://www.w3.org/2000/svg" d="m152 280h16v16h-16zm0 0" fill="#3298e7" data-original="#000000" style="" class=""/><path xmlns="http://www.w3.org/2000/svg" d="m120 200h80v-80h-80zm16-56c0-4.417969 3.582031-8 8-8h32c4.417969 0 8 3.582031 8 8v32c0 4.417969-3.582031 8-8 8h-32c-4.417969 0-8-3.582031-8-8zm0 0" fill="#3298e7" data-original="#000000" style="" class=""/><path xmlns="http://www.w3.org/2000/svg" d="m120 328h80v-80h-80zm16-56c0-4.417969 3.582031-8 8-8h32c4.417969 0 8 3.582031 8 8v32c0 4.417969-3.582031 8-8 8h-32c-4.417969 0-8-3.582031-8-8zm0 0" fill="#3298e7" data-original="#000000" style="" class=""/><path xmlns="http://www.w3.org/2000/svg" d="m152 152h16v16h-16zm0 0" fill="#3298e7" data-original="#000000" style="" class=""/><path xmlns="http://www.w3.org/2000/svg" d="m280 152h16v16h-16zm0 0" fill="#3298e7" data-original="#000000" style="" class=""/><path xmlns="http://www.w3.org/2000/svg" d="m224 0c-123.710938 0-224 100.289062-224 224s100.289062 224 224 224 224-100.289062 224-224c-.140625-123.652344-100.347656-223.859375-224-224zm-8 336c0 4.417969-3.582031 8-8 8h-96c-4.417969 0-8-3.582031-8-8v-96c0-4.417969 3.582031-8 8-8h96c4.417969 0 8 3.582031 8 8zm0-128c0 4.417969-3.582031 8-8 8h-96c-4.417969 0-8-3.582031-8-8v-96c0-4.417969 3.582031-8 8-8h96c4.417969 0 8 3.582031 8 8zm16 32c0-4.417969 3.582031-8 8-8h32v16h-24v24h-16zm72 16v16h-40v-16zm-8 80c0 4.417969-3.582031 8-8 8h-48c-4.417969 0-8-3.582031-8-8v-48c0-4.417969 3.582031-8 8-8h48c4.417969 0 8 3.582031 8 8zm48 0c0 4.417969-3.582031 8-8 8h-32v-16h24v-40h-16v-16h24c4.417969 0 8 3.582031 8 8zm0-72h-16v-16h-40v-16h48c4.417969 0 8 3.582031 8 8zm0-56c0 4.417969-3.582031 8-8 8h-96c-4.417969 0-8-3.582031-8-8v-16h16v8h80v-80h-80v56h-16v-64c0-4.417969 3.582031-8 8-8h96c4.417969 0 8 3.582031 8 8zm-80-32v-32c0-4.417969 3.582031-8 8-8h32c4.417969 0 8 3.582031 8 8v32c0 4.417969-3.582031 8-8 8h-32c-4.417969 0-8-3.582031-8-8zm0 0" fill="#3298e7" data-original="#000000" style="" class=""/></g></svg>
